<svg xmlns="http://www.w3.org/2000/svg" viewBox="0 0 256 256" width="256" height="256" role="img" aria-label="Trash Sorter Pro logo">
  <defs>
    <linearGradient id="bg" x1="34" y1="20" x2="214" y2="236" gradientUnits="userSpaceOnUse">
      <stop offset="0" stop-color="#0F2438"/>
      <stop offset="0.58" stop-color="#081827"/>
      <stop offset="1" stop-color="#06111F"/>
    </linearGradient>
    <linearGradient id="ring" x1="52" y1="42" x2="210" y2="220" gradientUnits="userSpaceOnUse">
      <stop offset="0" stop-color="#67E8F9"/>
      <stop offset="0.52" stop-color="#10B981"/>
      <stop offset="1" stop-color="#FBBF24"/>
    </linearGradient>
    <linearGradient id="green" x1="62" y1="54" x2="154" y2="88" gradientUnits="userSpaceOnUse">
      <stop offset="0" stop-color="#86EFAC"/>
      <stop offset="1" stop-color="#10B981"/>
    </linearGradient>
    <linearGradient id="cyan" x1="164" y1="72" x2="210" y2="180" gradientUnits="userSpaceOnUse">
      <stop offset="0" stop-color="#67E8F9"/>
      <stop offset="1" stop-color="#14B8A6"/>
    </linearGradient>
    <linearGradient id="amber" x1="72" y1="150" x2="150" y2="214" gradientUnits="userSpaceOnUse">
      <stop offset="0" stop-color="#34D399"/>
      <stop offset="1" stop-color="#FBBF24"/>
    </linearGradient>
  </defs>
  <rect x="12" y="12" width="232" height="232" rx="54" fill="url(#bg)"/>
  <rect x="12" y="12" width="232" height="232" rx="54" fill="none" stroke="url(#ring)" stroke-width="5" opacity="0.88"/>
  <path d="M70 113C74 74 112 50 151 62" fill="none" stroke="url(#green)" stroke-width="17" stroke-linecap="round"/>
  <path d="M154 63L134 45L163 41Z" fill="url(#green)"/>
  <path d="M171 77C205 98 215 145 191 181" fill="none" stroke="url(#cyan)" stroke-width="17" stroke-linecap="round"/>
  <path d="M190 183L215 178L199 205Z" fill="url(#cyan)"/>
  <path d="M157 201C115 217 73 191 68 148" fill="none" stroke="url(#amber)" stroke-width="17" stroke-linecap="round"/>
  <path d="M68 146L50 166L47 136Z" fill="url(#amber)"/>
  <circle cx="128" cy="128" r="47" fill="#071421" stroke="#2DD4BF" stroke-width="6"/>
  <circle cx="128" cy="128" r="31" fill="#0B2232" stroke="#A7F3D0" stroke-width="3" opacity="0.96"/>
  <circle cx="128" cy="128" r="15" fill="#10B981"/>
  <circle cx="137" cy="119" r="5" fill="#E0F2FE" opacity="0.92"/>
  <g fill="#A7F3D0" opacity="0.9">
    <circle cx="92" cy="128" r="4"/>
    <circle cx="164" cy="128" r="4"/>
    <circle cx="128" cy="92" r="4"/>
    <circle cx="128" cy="164" r="4"/>
  </g>
  <g transform="translate(87 184)">
    <rect x="0" y="0" width="30" height="20" rx="6" fill="#10B981"/>
    <rect x="36" y="0" width="30" height="20" rx="6" fill="#22D3EE"/>
    <rect x="72" y="0" width="30" height="20" rx="6" fill="#FBBF24"/>
  </g>
</svg>
